<?xml version="1.0" standalone="no"?><!DOCTYPE svg PUBLIC "-//W3C//DTD SVG 1.1//EN" "http://www.w3.org/Graphics/SVG/1.1/DTD/svg11.dtd"><svg t="1767509445882" class="icon" viewBox="0 0 1024 1024" version="1.1" xmlns="http://www.w3.org/2000/svg" p-id="1224" xmlns:xlink="http://www.w3.org/1999/xlink" width="200" height="200"><path d="M684.096738 80.700471C603.978668 96.158034 543.454692 141.224448 507.967612 211.327759 441.129983 344.132168 507.532188 509.811111 645.997112 555.966086 672.12257 564.674572 690.628102 567.287118 724.37342 567.287118 791.86425 567.287118 848.68712 542.903401 895.059807 494.135837 924.886371 462.567576 944.480465 427.080496 955.583784 384.408915 962.768285 356.324048 964.727694 308.8628 959.938027 280.777934 943.391904 186.943999 878.295972 113.575006 787.510007 86.796412 770.093036 81.57132 763.561737 80.918184 728.727793 80.265069 707.174182 80.047335 687.144708 80.265069 684.096738 80.700471ZM772.270157 122.501204C860.879 146.884964 919.66128 220.036245 925.104084 312.346195 929.022902 380.054672 897.454641 449.069422 844.332877 489.128457 810.587495 514.818491 774.882703 527.445839 731.99341 529.405204 670.598585 532.01775 618.129914 510.899672 576.546938 466.704019 552.163177 440.796361 536.487903 412.058358 526.03772 374.394156 520.159492 352.840654 520.159492 294.493799 526.03772 270.980887 531.045099 250.515945 546.067237 218.076836 558.694542 200.442152 587.650344 159.947693 635.764642 128.814856 683.443601 119.888658 706.521089 115.534415 751.805215 116.840688 772.270157 122.501204Z" fill="#ffffff" p-id="1225"></path><path d="M704.343968 142.748433C689.539476 152.110055 685.185299 168.220754 693.240735 183.896029 699.5543 195.870197 709.351434 201.966137 722.414076 201.748425 735.694517 201.313 745.709275 194.781636 751.587503 182.589712 757.030307 171.486415 756.377127 163.213331 749.410382 151.674631 741.355032 138.39419 718.059833 133.822235 704.343968 142.748433ZM728.074678 163.648799C735.04138 169.962451 731.558029 179.541786 722.196363 179.541786 709.569059 179.541786 709.351434 160.383117 721.978651 159.947693 723.067212 159.947693 725.897557 161.471678 728.074678 163.648799Z" fill="#ffffff" p-id="1226"></path><path d="M702.60227 211.327759C671.904858 217.859123 654.487886 226.567609 636.200066 244.85543 622.701826 258.353583 606.808926 286.873874 604.414005 301.6783 603.10782 308.8628 602.236971 310.169073 597.665016 310.169073 589.609667 310.169073 578.506347 315.611877 573.498968 322.143241 569.362437 327.368333 568.709301 330.851727 568.709301 350.663532 568.709301 372.652459 568.926969 373.305596 575.458377 380.925521 580.030332 385.9329 585.473223 389.416294 591.786788 390.940279L601.366122 393.335113 601.366122 419.895995C601.366122 437.748391 602.236971 447.327725 603.978668 449.069422 605.938165 451.028919 634.893793 451.681968 721.107803 451.681968 807.321813 451.681968 836.277528 451.028919 838.236937 449.069422 839.978634 447.327725 840.849483 437.530679 840.849483 419.678196 840.849483 400.08419 841.502619 392.464265 843.679741 392.02884 844.986014 391.375704 848.904832 390.504855 852.388227 389.851719 855.653909 388.98087 861.532137 385.715188 865.450956 382.231794 872.417744 375.918141 872.417744 375.918141 873.070881 351.752093L873.941729 327.586045 866.321804 319.96612C861.314425 314.958741 856.089333 312.128483 849.775681 311.039922 842.373468 309.951361 840.631771 308.645088 839.54321 303.855421 834.100407 279.253949 824.085648 261.401553 806.233252 244.202293 789.687129 228.091594 770.310748 217.641455 749.628094 213.069456 736.129941 210.239198 712.399317 209.368372 702.60227 211.327759ZM747.451059 246.161702C775.971264 254.434764 796.218493 274.246569 806.01554 303.419997 809.934358 315.176453 810.369783 321.925529 810.369783 368.951353L810.369783 421.202268 631.628111 421.202268 632.281247 365.032534 632.934384 309.080513 639.901172 294.493799C643.602322 286.438449 650.786736 275.552842 655.576447 270.327751 665.155825 259.877568 684.967587 248.338824 698.46574 245.073142 711.963893 241.80746 734.605956 242.460596 747.451059 246.161702ZM601.366122 350.44582C601.366122 361.54914 600.712986 364.59711 598.10044 364.59711 595.487938 364.59711 594.834758 361.766852 594.834758 351.969805 594.834758 345.003017 595.487938 338.471652 596.358743 337.818516 600.05985 334.117409 601.366122 337.383092 601.366122 350.44582ZM846.945423 351.098957C847.380847 362.202276 846.945423 364.59711 844.115165 364.59711 841.502619 364.59711 840.849483 361.766852 840.849483 350.228108 840.849483 339.777925 841.502619 336.076819 843.679741 336.729955 845.203726 337.383092 846.509999 342.825895 846.945423 351.098957Z" fill="#ffffff" p-id="1227"></path><path d="M698.030315 266.19122C675.170453 276.859115 662.325523 296.67092 662.325523 321.272393 662.325523 346.962426 679.960207 371.563899 703.908543 378.530687 718.495257 382.88493 724.37342 382.88493 738.307062 378.312975 760.513701 371.128474 777.059824 349.792684 779.236946 325.626636 781.196355 302.549148 767.045066 277.947676 745.9269 267.715205 733.517395 261.619265 709.569059 260.966128 698.030315 266.19122ZM734.170532 292.969814C743.749779 298.848042 746.580124 302.549148 749.628094 313.434756 752.893776 325.408924 749.410382 336.076819 738.524774 345.873865 728.292216 355.235488 718.059833 356.324048 706.738801 349.139547 684.749874 335.641394 685.403011 303.637709 708.045074 292.316677 718.059833 287.091586 724.808996 287.309298 734.170532 292.969814Z" fill="#ffffff" p-id="1228"></path><path d="M645.126264 468.228178C640.554309 474.106319 640.772108 482.161669 645.561688 488.039897 647.085673 490.217018 664.720357 490.870154 720.019242 490.870154 787.292295 490.870154 792.517387 490.652442 795.783069 486.951423 800.790448 481.508489 800.355024 472.146953 795.129932 466.921818 790.993402 462.785288 787.945432 462.567576 720.236954 462.567576L649.480507 462.567576 645.126264 468.228178Z" fill="#ffffff" p-id="1229"></path><path d="M88.654019 263.578674C80.598648 270.545463 71.237047 279.907085 67.753653 284.696752L61.44 293.405238 61.44 531.364614C61.44 689.205919 62.093137 771.283442 63.617122 775.202217 66.882804 783.692991 77.550721 796.320295 91.266564 808.076751L103.458445 818.526934 239.746248 819.615495 376.034051 820.704056 376.687188 829.847966 377.340324 839.209588 337.934426 839.209588C314.856938 839.209588 296.78683 840.080437 294.174284 841.38671 290.255466 843.563831 290.037754 846.394089 290.037754 891.460503 290.037754 936.526917 290.255466 939.357175 294.174284 941.534297 300.052512 944.582267 571.757184 944.582267 577.635499 941.534297 581.554317 939.357175 581.772029 936.526917 581.772029 891.460503 581.772029 846.394089 581.554317 843.563831 577.635499 841.38671 575.022996 840.080437 556.081996 839.209588 531.045099 839.209588L488.591231 839.209588 487.50267 830.936527C487.067311 826.582284 487.067311 822.228041 487.50267 821.13948 487.938094 820.268631 552.380824 819.615495 630.53955 819.615495L772.705581 819.615495 781.196355 813.301843C790.557977 806.335054 807.757237 788.918082 813.417753 780.427309 816.465723 775.637641 816.901147 764.534409 816.901147 677.449464 816.901147 600.161652 816.248011 579.914422 814.288601 580.785271 812.764616 581.438407 804.273843 583.615529 795.783069 585.79265L779.890082 589.711469 779.890082 676.578615C779.890082 761.050928 779.672283 763.663473 775.318127 769.759413 765.521081 783.475279 789.033992 782.60443 440.041422 782.60443 124.794213 782.60443 121.746265 782.60443 114.779476 778.250187 99.539626 768.888565 100.628187 787.611809 100.628187 534.412584L100.628187 305.81483 108.0304 297.541769 115.432591 289.486419 459.853228 289.486419 460.941788 282.955055C461.377213 279.253949 462.465773 270.763175 463.11891 263.796386L464.425139 251.386794 103.02302 251.386794 88.654019 263.578674ZM448.96762 844.652392C448.96762 867.076743 449.403132 869.689288 453.104151 871.86641 455.716697 873.172683 475.093078 874.043531 501.000736 874.043531L544.760965 874.043531 544.760965 906.700353 327.048819 906.700353 327.048819 874.043531 368.414126 874.043531C406.949176 874.043531 409.779434 873.825819 411.956555 869.907001 413.045116 867.512167 414.133677 855.320287 414.133677 842.692982L414.133677 819.615495 448.96762 819.615495 448.96762 844.652392Z" fill="#ffffff" p-id="1230"></path><path d="M184.447363 373.087884C174.214892 377.442126 173.561756 380.272384 173.561756 423.379389 173.561756 460.608166 173.99718 464.744697 177.698286 468.881141 180.310832 471.711486 184.447363 473.453183 188.583894 473.453183 201.42891 473.453183 201.864335 472.364622 202.952895 434.918133L204.041456 400.519614 242.576506 401.390463C285.248086 402.261311 293.521148 400.737326 295.915982 391.157992 296.569118 388.327734 296.351406 383.102642 295.262845 380.054672 293.521148 375.482717 291.344027 374.176444 283.506389 373.087884 268.266539 370.910762 189.237052 371.128474 184.447363 373.087884Z" fill="#ffffff" p-id="1231"></path><path d="M352.956564 464.526985L346.642912 470.840637 346.642912 539.419963C346.642912 603.645046 346.860624 608.216914 350.779442 613.006668 354.045125 617.143199 357.093095 618.23176 364.495308 618.23176 372.332945 618.23176 376.687188 616.272351 391.709326 605.604455 401.28866 598.855379 409.779434 593.194863 410.43257 593.194863 411.085707 593.194863 417.617071 604.298139 425.019284 617.578623 432.42141 631.076777 440.041422 643.921793 442.000832 645.881202 450.056246 655.025113 470.738835 646.098915 470.738835 633.47161 470.738835 630.42364 464.20747 616.054638 456.369833 601.685637 448.532109 587.316635 442.436256 575.124755 442.871637 574.471531 443.524817 574.036194 453.757287 568.811103 465.949168 562.932875 488.155807 552.047268 492.510049 547.910737 492.510049 537.896065 492.510049 528.534399 482.495291 520.043582 445.048758 497.836943 371.462096 454.076802 365.583868 451.89968 352.956564 464.526985ZM409.561722 517.213324C423.495299 525.486386 436.122604 532.888599 437.864301 533.977159 440.259134 535.283432 436.993452 538.11369 425.890133 544.20963 417.617071 548.781585 403.901206 557.272424 395.19272 563.150587 386.484234 568.811103 379.299734 573.60077 378.864309 573.60077 378.428885 573.60077 378.428885 564.45686 378.428885 553.353627 378.646597 542.467933 378.864309 525.704098 379.082021 516.342432 379.299734 503.932883 379.95287 499.796309 381.912279 500.88487 383.218552 501.755762 395.628145 509.158018 409.561722 517.213324Z" fill="#ffffff" p-id="1232"></path><path d="M178.569135 612.13582C172.908641 618.884896 172.473195 623.456851 173.99718 664.604491 175.085741 699.656102 175.956567 705.53433 179.439984 709.017725 182.923378 712.501119 187.930757 712.936543 236.262854 712.936543 285.030374 712.936543 289.602329 712.501119 292.868012 709.017725 295.045133 706.840603 296.569118 702.050936 296.569118 698.567542 296.569118 685.940237 296.351406 685.722525 248.237022 684.633964L204.041456 683.545404 203.38832 649.800021C202.952895 622.585938 202.082047 615.619214 199.251789 612.353532 194.679834 607.346153 182.923378 607.346153 178.569135 612.13582Z" fill="#ffffff" p-id="1233"></path><path d="M654.052418 611.918108C649.480507 615.18379 649.262795 616.490063 649.262795 650.017733L649.262795 684.633964 603.760913 684.633964C558.912254 684.633964 558.041405 684.633964 554.775723 689.423588 549.986056 696.172621 550.42148 703.357209 555.646572 708.5823 559.783103 712.718744 562.831073 712.936543 614.428851 712.936543 665.373493 712.936543 669.0746 712.718744 672.993331 708.799969 679.307071 702.48636 680.177919 693.777962 679.307071 653.501084 678.653934 621.932823 678.21851 617.143199 674.517491 613.006668 669.510024 607.563952 660.801451 607.128353 654.052418 611.918108Z" fill="#ffffff" p-id="1234"></path></svg>